<svg id="Layers" xmlns="http://www.w3.org/2000/svg" viewBox="0 0 366.47 476.67"><defs><style>.cls-1{fill:#4e79a8;}.cls-2{isolation:isolate;}</style></defs><title>logotext</title><path class="cls-1" d="M183.22,0c38.82,33.39,179,130.52,183.25,396.08L306,358.52c-5-194.91-122.74-285.44-122.74-285.44S63,169.08,60.47,358.52L0,396.08C0,293,28.38,113.94,183.22,0Z"/><g id="Type"><g class="cls-2"><path class="cls-1" d="M69.24,475.23h-8.8L85,418.59h7.2l24.32,56.64h-9l-5.76-13.92H74.92Zm8.48-20.88h21.2L88.36,427.79Z"/><path class="cls-1" d="M140.52,475.23H132.6V418.59h18.16a34.76,34.76,0,0,1,7.76.84,19.15,19.15,0,0,1,6.44,2.68,13.21,13.21,0,0,1,4.36,4.84,15.35,15.35,0,0,1,1.6,7.32,13.63,13.63,0,0,1-3.84,10.08,17.86,17.86,0,0,1-9.92,4.88l15.84,26h-9.6L149,450h-8.48Zm0-31.84h9.12a26.5,26.5,0,0,0,5.2-.48,13.09,13.09,0,0,0,4.2-1.56A8.69,8.69,0,0,0,161.88,430a7.93,7.93,0,0,0-2.76-2.76,12.1,12.1,0,0,0-4-1.48,26.44,26.44,0,0,0-4.88-.44h-9.68Z"/><path class="cls-1" d="M239.08,466.43a25.41,25.41,0,0,1-8.72,7.4,27.22,27.22,0,0,1-12.88,2.84,31.73,31.73,0,0,1-12-2.2,27.93,27.93,0,0,1-9.44-6.16,28.33,28.33,0,0,1-6.2-9.44,31.59,31.59,0,0,1-2.24-12,31.23,31.23,0,0,1,2.28-12.12,27.49,27.49,0,0,1,6.32-9.36,28.67,28.67,0,0,1,9.56-6,32.65,32.65,0,0,1,12-2.16,31.62,31.62,0,0,1,5.84.56,28.62,28.62,0,0,1,5.68,1.68,23.8,23.8,0,0,1,5,2.76,18,18,0,0,1,3.84,3.8l-6.24,4.8A15.61,15.61,0,0,0,226,426a18.28,18.28,0,0,0-8.2-1.88,21.31,21.31,0,0,0-8.92,1.8,20.22,20.22,0,0,0-6.76,4.92,22.1,22.1,0,0,0-4.32,7.24,25.21,25.21,0,0,0-1.52,8.76,26.44,26.44,0,0,0,1.48,9A21.58,21.58,0,0,0,202,463a19.57,19.57,0,0,0,6.72,4.84,21.6,21.6,0,0,0,8.84,1.76,19.55,19.55,0,0,0,8.72-1.92,16.87,16.87,0,0,0,6.48-5.6Z"/><path class="cls-1" d="M256,418.59h7.92v23.68h28.64V418.59h8v56.64h-8V449.31H263.88v25.92H256Z"/></g></g></svg>